<svg width="30" height="30" xmlns="http://www.w3.org/2000/svg" preserveAspectRatio="none" version="1.1">

 <g>
  <title>Layer 1</title>
  <path id="svg_1" d="m0,0l0,30l30,0l0,-30l-30,0z" fill="#4d1515"/>
  <path id="svg_2" d="m5,30l-5,-5l0,5l5,0m-5,-15l0,5l10,10l5,0l-15,-15m0,-10l0,5l20,20l5,0l-25,-25m5,-5l-5,0l30,30l0,-5l-25,-25m25,20l0,-5l-15,-15l-5,0l20,20m0,-10l0,-5l-5,-5l-5,0l10,10z" fill="#721f1f"/>
  <path id="svg_3" d="m30,3l-30,0l0,6.95l30,0l0,-6.95m0,-3.05l-30,0l0,0.05l30,0l0,-0.05z" fill-opacity="0.49804" fill="#FFFFFF"/>
  <path id="svg_4" d="m30,0l-30,0l0,3l30,0l0,-3z" fill="#FFFFFF"/>
 </g>
</svg>